<svg xmlns="http://www.w3.org/2000/svg" width="91" height="92" viewBox="0 0 91 92">
  <g id="Group_3109" data-name="Group 3109" transform="translate(-322 -106)">
    <rect id="Rectangle_25" data-name="Rectangle 25" width="91" height="92" transform="translate(322 106)" fill="rgba(255,255,255,0)"/>
    <g id="Path_2" data-name="Path 2" transform="translate(338 110)" fill="#fff">
      <path d="M 33 82.5 L 25 82.5 C 24.15507125854492 82.5 23.52041244506836 82.29410552978516 23.1136474609375 81.88803863525391 C 22.70645904541016 81.48152923583984 22.5 80.84630584716797 22.5 80 L 22.5 78.5 L 35.5 78.5 L 35.5 80 C 35.5 81.70561218261719 34.70561218261719 82.5 33 82.5 Z M 35.58169937133789 72.5 L 22.55975151062012 72.5 C 22.57396697998047 72.31166076660156 22.58946800231934 72.12505340576172 22.60482406616211 71.940185546875 C 22.71492958068848 70.61453247070312 22.82877731323242 69.24372863769531 22.46110534667969 67.66065979003906 C 22.10262298583984 66.11814117431641 21.25789451599121 64.69181060791016 20.44098854064941 63.31244659423828 C 20.03186988830566 62.62163543701172 19.64543533325195 61.96915435791016 19.3553638458252 61.35736465454102 C 18.3548583984375 59.24655151367188 17.43829345703125 57.72021102905273 16.19181251525879 56.08918762207031 C 15.09696483612061 54.65692901611328 13.65843486785889 53.36818695068359 12.38924694061279 52.23115158081055 C 12.25947093963623 52.11488342285156 12.13061141967773 51.99943542480469 12.00314140319824 51.8847770690918 L 11.96494102478027 51.85042190551758 L 11.92448234558105 51.81875228881836 C 8.630729675292969 49.2409782409668 6.052670478820801 46.06151580810547 4.261894226074219 42.36870574951172 C 2.429235219955444 38.58951950073242 1.5 34.42809295654297 1.5 30 C 1.5 14.55140018463135 14.55140018463135 1.5 30 1.5 C 37.38798904418945 1.5 44.31547164916992 4.491799831390381 49.50634002685547 9.924282073974609 C 52.0156135559082 12.55034160614014 53.98596572875977 15.6038703918457 55.36269378662109 19.00003623962402 C 56.78090667724609 22.4985523223877 57.5 26.19948196411133 57.5 30 C 57.5 34.42757797241211 56.57070541381836 38.58887100219727 54.73791885375977 42.36831665039062 C 52.9470100402832 46.0614013671875 50.36899948120117 49.24100112915039 47.07548141479492 51.81878662109375 L 47.03514099121094 51.85036468505859 L 46.99704742431641 51.88461303710938 C 46.87018966674805 51.99868392944336 46.74197769165039 52.11350631713867 46.61288070678711 52.22912979125977 C 45.34342193603516 53.36606979370117 43.90458679199219 54.65471649169922 42.80824661254883 56.08911895751953 C 42.39977645874023 56.62337493896484 41.90569305419922 57.15623474121094 41.38261032104492 57.72036361694336 C 40.36307144165039 58.81993103027344 39.30881118774414 59.95691680908203 38.64469528198242 61.35722351074219 C 37.79767227172852 63.14364624023438 37.10887145996094 65.20552062988281 36.53886032104492 67.66078948974609 C 36.47218704223633 67.94773101806641 36.40535354614258 68.22792816162109 36.33970642089844 68.50323486328125 C 36.02452087402344 69.82496643066406 35.72239685058594 71.09191131591797 35.58169937133789 72.5 Z" stroke="none"/>
      <path d="M 33 81 C 33.51650619506836 81 33.7666015625 80.88655853271484 33.82667922973633 80.82657623291016 C 33.88662719726562 80.7667236328125 34 80.51694488525391 34 80 L 24 80 C 24 80.51679992675781 24.11342620849609 80.7666015625 24.17341423034668 80.82646942138672 C 24.23353385925293 80.88648986816406 24.48366737365723 81 25 81 L 33 81 M 34.27042770385742 71 C 34.43400192260742 70.02822113037109 34.65409088134766 69.10526275634766 34.880615234375 68.15533447265625 C 34.94559860229492 67.88277435302734 35.01177215576172 67.60536956787109 35.07772064208984 67.32157135009766 C 35.67232131958008 64.76039886474609 36.39572143554688 62.59928131103516 37.28939819335938 60.71445465087891 C 38.05223846435547 59.10598754882812 39.23720169067383 57.8280143737793 40.28268051147461 56.70049285888672 C 40.78085327148438 56.16321182250977 41.25141143798828 55.65573501586914 41.61648178100586 55.17822647094727 C 42.79859924316406 53.63159942626953 44.2933464050293 52.29289245605469 45.61212158203125 51.11177444458008 C 45.740478515625 50.9968147277832 45.86796188354492 50.88265228271484 45.99409484863281 50.76922607421875 L 46.07027816772461 50.70072174072266 L 46.15095901489258 50.6375732421875 C 52.50221252441406 45.66654586791992 56 38.33730697631836 56 30 C 56 26.39354705810547 55.31787872314453 22.8822135925293 53.97257232666016 19.56356048583984 C 52.66727828979492 16.34359931945801 50.79974746704102 13.44913291931152 48.42184066772461 10.96054649353027 C 43.51670837402344 5.827106475830078 36.97437286376953 3 30 3 C 26.44406700134277 3 22.96080017089844 3.723639965057373 19.64695930480957 5.150839805603027 C 16.43819999694824 6.532773494720459 13.53873348236084 8.504306793212891 11.02910709381104 11.01069355010986 C 8.517853736877441 13.51871967315674 6.542466640472412 16.41709327697754 5.157853126525879 19.62528038024902 C 3.726000070571899 22.94290733337402 3 26.4334659576416 3 30 C 3 38.33766555786133 6.497759819030762 45.6668815612793 12.84895992279053 50.63750839233398 L 12.92986679077148 50.70083999633789 L 13.00626659393311 50.76956176757812 C 13.13296031951904 50.88350677490234 13.26102638244629 50.99824142456055 13.39001369476318 51.11380004882812 C 14.70851993560791 52.29499816894531 16.20293426513672 53.63381195068359 17.38361358642578 55.17835998535156 C 18.68094635009766 56.87590789794922 19.6760139465332 58.53174591064453 20.71073341369629 60.7147216796875 C 20.97125244140625 61.2641716003418 21.34059906005859 61.88782501220703 21.73163986206055 62.5481071472168 C 22.56579971313477 63.95660018920898 23.51125335693359 65.55303955078125 23.92222595214844 67.32131958007812 C 24.2380313873291 68.68110656738281 24.24405860900879 69.89714050292969 24.17917633056641 71 L 34.27042770385742 71 M 33 84 L 25 84 C 22.4770393371582 84 21 82.53224182128906 21 80 L 21 77 L 37 77 L 37 80 C 37 82.53224182128906 35.52347946166992 84 33 84 Z M 37 74 L 21 74 C 20.97944068908691 71.82670593261719 21.48773384094238 70.10005187988281 21 68 C 20.52510643005371 65.95668029785156 18.89889335632324 63.89582824707031 18 62 C 17.11704063415527 60.13718795776367 16.25454711914062 58.64157485961914 15 57 C 13.88628005981445 55.54305267333984 12.364013671875 54.22692108154297 11 53 C 4.099239826202393 47.59926605224609 0 39.46262741088867 0 30 C 0 13.70135974884033 13.7577600479126 0 30 0 C 46.24224090576172 0 59 13.70135974884033 59 30 C 59 39.46160125732422 54.90024185180664 47.59928131103516 48 53 C 46.63496017456055 54.22743988037109 45.11474609375 55.54151916503906 44 57 C 42.74494552612305 58.64157485961914 40.88346481323242 60.13718795776367 40 62 C 39.10110855102539 63.89582824707031 38.47437286376953 65.95668029785156 38 68 C 37.51226806640625 70.09902954101562 37.02056121826172 71.82620239257812 37 74 Z" stroke="none" fill="#61bffa"/>
    </g>
  </g>
</svg>
