<svg xmlns="http://www.w3.org/2000/svg" width="101.973" height="24" viewBox="0 0 101.973 24">
  <g id="Logo-RedHat-A-Color-RGB" transform="translate(-0.5 -0.5)">
    <path id="Path_1457" data-name="Path 1457" d="M21.662,14.332c2.085,0,5.1-.43,5.1-2.91a2.333,2.333,0,0,0-.052-.57L25.47,5.458c-.287-1.187-.538-1.725-2.622-2.767C21.232,1.865,17.71.5,16.668.5c-.97,0-1.252,1.25-2.408,1.25-1.113,0-1.94-.933-2.982-.933-1,0-1.652.682-2.155,2.083,0,0-1.4,3.953-1.582,4.527A1.072,1.072,0,0,0,7.5,7.75c0,1.537,6.05,6.575,14.157,6.575m5.422-1.9a8.294,8.294,0,0,1,.288,1.688c0,2.333-2.623,3.628-6.072,3.628-7.793,0-14.62-4.562-14.62-7.58a3.075,3.075,0,0,1,.252-1.222C4.128,9.083.5,9.583.5,12.787.5,18.033,12.932,24.5,22.775,24.5c7.547,0,9.45-3.413,9.45-6.108,0-2.12-1.833-4.527-5.138-5.963" fill="#e00"/>
    <path id="Path_1458" data-name="Path 1458" d="M57.983,47.1a8.294,8.294,0,0,1,.288,1.688c0,2.333-2.623,3.628-6.072,3.628-7.793,0-14.62-4.562-14.62-7.58a3.075,3.075,0,0,1,.252-1.222l.61-1.51a1.072,1.072,0,0,0-.037.317c0,1.537,6.05,6.575,14.157,6.575,2.085,0,5.1-.43,5.1-2.91a2.333,2.333,0,0,0-.052-.57Z" transform="translate(-30.9 -34.667)"/>
    <path id="Path_1459" data-name="Path 1459" d="M284.957,42.5c0,1.982,1.192,2.945,3.365,2.945a8.686,8.686,0,0,0,1.982-.28v-2.3a4.14,4.14,0,0,1-1.28.193c-.9,0-1.227-.28-1.227-1.122V38.417h2.593V36.05H287.8v-3l-2.833.613V36.05h-1.882v2.367h1.875Zm-8.833.053c0-.613.615-.912,1.543-.912a7.186,7.186,0,0,1,1.683.21v1.192a3.585,3.585,0,0,1-1.772.438c-.91,0-1.455-.35-1.455-.928m.867,2.927a4.339,4.339,0,0,0,2.56-.718v.562h2.8V39.38c0-2.26-1.523-3.5-4.065-3.5a10.347,10.347,0,0,0-4.333,1.017l1.017,2.087a7.569,7.569,0,0,1,2.805-.737c1.167,0,1.77.455,1.77,1.385v.455a8.255,8.255,0,0,0-2.1-.263c-2.385,0-3.822,1-3.822,2.788,0,1.63,1.3,2.873,3.365,2.873m-15.407-.157H264.6V40.52h5.048v4.8h3.023V33.053h-3.012v4.715h-5.048V33.053h-3.015ZM250.1,40.678a2.348,2.348,0,0,1,2.437-2.35,2.87,2.87,0,0,1,1.96.72V42.29a2.727,2.727,0,0,1-1.96.743,2.359,2.359,0,0,1-2.437-2.348m4.435,4.645h2.805V32.44l-2.833.613v3.488a4.788,4.788,0,1,0-2.453,8.9,4.187,4.187,0,0,0,2.488-.805ZM241.667,38.2a2.051,2.051,0,0,1,1.945,1.472h-3.867a1.936,1.936,0,0,1,1.922-1.472m-4.778,2.5a4.868,4.868,0,0,0,5.047,4.8,5.569,5.569,0,0,0,3.875-1.4l-1.877-1.667a2.507,2.507,0,0,1-1.857.7,2.4,2.4,0,0,1-2.28-1.472h6.608v-.705c0-2.945-1.98-5.065-4.68-5.065a4.762,4.762,0,0,0-4.833,4.8M232,35.63a1.395,1.395,0,1,1,0,2.77h-2.982V35.63Zm-6,9.693h3.015v-4.47h2.3l2.315,4.47H237l-2.7-4.908a3.712,3.712,0,0,0,2.313-3.453c0-2.208-1.735-3.908-4.333-3.908H226Z" transform="translate(-187.917 -26.617)"/>
  </g>
</svg>
